<svg xmlns="http://www.w3.org/2000/svg" xmlns:xlink="http://www.w3.org/1999/xlink" width="158" zoomAndPan="magnify" viewBox="0 0 118.5 75.749998" height="101" preserveAspectRatio="xMidYMid meet" version="1.0"><defs><clipPath id="632a70de0e"><path d="M 0.617188 0.371094 L 64.96875 0.371094 L 64.96875 48.636719 L 0.617188 48.636719 Z M 0.617188 0.371094 " clip-rule="nonzero"/></clipPath><clipPath id="36178a087e"><path d="M 48.882812 0.371094 L 0.617188 0.371094 L 16.707031 48.636719 L 64.96875 48.636719 Z M 48.882812 0.371094 " clip-rule="nonzero"/></clipPath><clipPath id="6c0bf69342"><path d="M 28.046875 14.089844 L 92.398438 14.089844 L 92.398438 62.351562 L 28.046875 62.351562 Z M 28.046875 14.089844 " clip-rule="nonzero"/></clipPath><clipPath id="8128be1490"><path d="M 76.3125 14.089844 L 28.046875 14.089844 L 44.136719 62.351562 L 92.398438 62.351562 Z M 76.3125 14.089844 " clip-rule="nonzero"/></clipPath><clipPath id="5cccdc113a"><path d="M 53.265625 27.132812 L 117.617188 27.132812 L 117.617188 75.394531 L 53.265625 75.394531 Z M 53.265625 27.132812 " clip-rule="nonzero"/></clipPath><clipPath id="f50dc2aa03"><path d="M 101.527344 27.132812 L 53.265625 27.132812 L 69.351562 75.394531 L 117.617188 75.394531 Z M 101.527344 27.132812 " clip-rule="nonzero"/></clipPath></defs><g clip-path="url(#632a70de0e)"><g clip-path="url(#36178a087e)"><path fill="#ff3131" d="M 0.617188 0.371094 L 64.96875 0.371094 L 64.96875 48.636719 L 0.617188 48.636719 Z M 0.617188 0.371094 " fill-opacity="1" fill-rule="nonzero"/></g></g><g clip-path="url(#6c0bf69342)"><g clip-path="url(#8128be1490)"><path fill="#ffde59" d="M 28.046875 14.089844 L 92.398438 14.089844 L 92.398438 62.351562 L 28.046875 62.351562 Z M 28.046875 14.089844 " fill-opacity="1" fill-rule="nonzero"/></g></g><g clip-path="url(#5cccdc113a)"><g clip-path="url(#f50dc2aa03)"><path fill="#004aad" d="M 53.265625 27.132812 L 117.617188 27.132812 L 117.617188 75.394531 L 53.265625 75.394531 Z M 53.265625 27.132812 " fill-opacity="1" fill-rule="nonzero"/></g></g></svg>